<svg xmlns="http://www.w3.org/2000/svg" viewBox="0 0 740 430" width="100%" height="100%">
  <defs>
    <filter id="shadow" x="-5%" y="-5%" width="112%" height="112%">
      <feDropShadow dx="0" dy="5" stdDeviation="8" flood-color="#0f172a" flood-opacity="0.12"/>
    </filter>
    <pattern id="holePattern" width="6" height="6" patternUnits="userSpaceOnUse" patternTransform="rotate(45)">
      <line x1="0" y1="0" x2="0" y2="6" stroke="#ef4444" stroke-width="2"/>
    </pattern>
    <style><![CDATA[
      .grid-bg { fill: rgba(148, 163, 184, 0.05); stroke: #64748b; stroke-width: 1.5; }
      .grid-line { stroke: rgba(148, 163, 184, 0.45); stroke-width: 0.85; }
      .cut-line { stroke: #0f172a; stroke-width: 2.6; stroke-linecap: round; }
      .border-line { stroke: #6366f1; stroke-width: 2.2; fill: none; }
      
      .proof-card { fill: rgba(148, 163, 184, 0.07); stroke: #64748b; stroke-width: 1.6; }
      .proof-badge { fill: rgba(16, 185, 129, 0.15); stroke: #10b981; stroke-width: 1.5; }
    ]]></style>
  </defs>

  <!-- FIGURE A -->
  <g id="figureA" filter="url(#shadow)">
    <text x="190.0" y="34.0" font-family="-apple-system, sans-serif" font-size="16" font-weight="900" fill="#6366f1" text-anchor="middle">
      Hình A (Nguyên vẹn)
    </text>

    <rect x="60.0" y="50.0" width="260.0" height="312.0" rx="8" class="grid-bg"/>

    <polygon points="190.0,50.0 190.0,180.0 138.0,180.0" fill="rgba(16, 185, 129, 0.28)" stroke="#10b981" stroke-width="1.8"/>
    <polygon points="190.0,50.0 190.0,180.0 242.0,180.0" fill="rgba(16, 185, 129, 0.28)" stroke="#10b981" stroke-width="1.8"/>
    <polygon points="138.0,180.0 138.0,362.0 60.0,362.0" fill="rgba(59, 130, 246, 0.28)" stroke="#3b82f6" stroke-width="1.8"/>
    <polygon points="242.0,180.0 242.0,362.0 320.0,362.0" fill="rgba(59, 130, 246, 0.28)" stroke="#3b82f6" stroke-width="1.8"/>
    <polygon points="138.0,180.0 242.0,180.0 242.0,310.0 190.0,310.0 190.0,232.0 138.0,232.0" fill="rgba(245, 158, 11, 0.28)" stroke="#f59e0b" stroke-width="1.8"/>
    <polygon points="138.0,232.0 190.0,232.0 190.0,310.0 242.0,310.0 242.0,362.0 138.0,362.0" fill="rgba(139, 92, 246, 0.28)" stroke="#8b5cf6" stroke-width="1.8"/>

    <g class="grid-line">
      <line x1="60.0" y1="50.0" x2="60.0" y2="362.0"/>
      <line x1="86.0" y1="50.0" x2="86.0" y2="362.0"/>
      <line x1="112.0" y1="50.0" x2="112.0" y2="362.0"/>
      <line x1="138.0" y1="50.0" x2="138.0" y2="362.0"/>
      <line x1="164.0" y1="50.0" x2="164.0" y2="362.0"/>
      <line x1="190.0" y1="50.0" x2="190.0" y2="362.0"/>
      <line x1="216.0" y1="50.0" x2="216.0" y2="362.0"/>
      <line x1="242.0" y1="50.0" x2="242.0" y2="362.0"/>
      <line x1="268.0" y1="50.0" x2="268.0" y2="362.0"/>
      <line x1="294.0" y1="50.0" x2="294.0" y2="362.0"/>
      <line x1="320.0" y1="50.0" x2="320.0" y2="362.0"/>
      <line x1="60.0" y1="50.0" x2="320.0" y2="50.0"/>
      <line x1="60.0" y1="76.0" x2="320.0" y2="76.0"/>
      <line x1="60.0" y1="102.0" x2="320.0" y2="102.0"/>
      <line x1="60.0" y1="128.0" x2="320.0" y2="128.0"/>
      <line x1="60.0" y1="154.0" x2="320.0" y2="154.0"/>
      <line x1="60.0" y1="180.0" x2="320.0" y2="180.0"/>
      <line x1="60.0" y1="206.0" x2="320.0" y2="206.0"/>
      <line x1="60.0" y1="232.0" x2="320.0" y2="232.0"/>
      <line x1="60.0" y1="258.0" x2="320.0" y2="258.0"/>
      <line x1="60.0" y1="284.0" x2="320.0" y2="284.0"/>
      <line x1="60.0" y1="310.0" x2="320.0" y2="310.0"/>
      <line x1="60.0" y1="336.0" x2="320.0" y2="336.0"/>
      <line x1="60.0" y1="362.0" x2="320.0" y2="362.0"/>
    </g>

    <rect x="60.0" y="50.0" width="260.0" height="312.0" rx="8" class="border-line"/>

    <g transform="translate(190.0, 388.0)">
      <rect x="-24" y="-13" width="48" height="26" rx="6" fill="rgba(99, 102, 241, 0.15)" stroke="#6366f1"/>
      <text y="5" font-family="-apple-system, sans-serif" font-size="14" font-weight="900" fill="#6366f1" text-anchor="middle">A</text>
    </g>
  </g>

  <!-- FIGURE B -->
  <g id="figureB" filter="url(#shadow)">
    <text x="550.0" y="34.0" font-family="-apple-system, sans-serif" font-size="16" font-weight="900" fill="#ef4444" text-anchor="middle">
      Hình B (Khuyết −2 ?)
    </text>

    <rect x="420.0" y="50.0" width="260.0" height="312.0" rx="8" class="grid-bg"/>

    <polygon points="550.0,50.0 550.0,232.0 472.0,232.0" fill="rgba(59, 130, 246, 0.28)" stroke="#3b82f6" stroke-width="1.8"/>
    <polygon points="550.0,50.0 550.0,232.0 628.0,232.0" fill="rgba(59, 130, 246, 0.28)" stroke="#3b82f6" stroke-width="1.8"/>
    <polygon points="472.0,232.0 472.0,362.0 420.0,362.0" fill="rgba(16, 185, 129, 0.28)" stroke="#10b981" stroke-width="1.8"/>
    <polygon points="628.0,232.0 628.0,362.0 680.0,362.0" fill="rgba(16, 185, 129, 0.28)" stroke="#10b981" stroke-width="1.8"/>
    <polygon points="524.0,232.0 628.0,232.0 628.0,362.0 576.0,362.0 576.0,284.0 524.0,284.0" fill="rgba(245, 158, 11, 0.28)" stroke="#f59e0b" stroke-width="1.8"/>
    <polygon points="472.0,232.0 524.0,232.0 524.0,310.0 576.0,310.0 576.0,362.0 472.0,362.0" fill="rgba(139, 92, 246, 0.28)" stroke="#8b5cf6" stroke-width="1.8"/>

    <!-- Hole at Row 9, Cols 4 and 5 -->
    <rect x="524.0" y="284.0" width="52.0" height="26.0" fill="rgba(239, 68, 68, 0.3)" stroke="#ef4444" stroke-width="2.5"/>
    <rect x="524.0" y="284.0" width="52.0" height="26.0" fill="url(#holePattern)"/>
    <text x="550.0" y="302.2" font-family="-apple-system, sans-serif" font-size="13" font-weight="900" fill="#ef4444" text-anchor="middle">−2</text>

    <!-- Grid Lines -->
    <g class="grid-line">
      <line x1="420.0" y1="50.0" x2="420.0" y2="362.0"/>
      <line x1="446.0" y1="50.0" x2="446.0" y2="362.0"/>
      <line x1="472.0" y1="50.0" x2="472.0" y2="362.0"/>
      <line x1="498.0" y1="50.0" x2="498.0" y2="362.0"/>
      <line x1="524.0" y1="50.0" x2="524.0" y2="362.0"/>
      <line x1="550.0" y1="50.0" x2="550.0" y2="362.0"/>
      <line x1="576.0" y1="50.0" x2="576.0" y2="362.0"/>
      <line x1="602.0" y1="50.0" x2="602.0" y2="362.0"/>
      <line x1="628.0" y1="50.0" x2="628.0" y2="362.0"/>
      <line x1="654.0" y1="50.0" x2="654.0" y2="362.0"/>
      <line x1="680.0" y1="50.0" x2="680.0" y2="362.0"/>
      <line x1="420.0" y1="50.0" x2="680.0" y2="50.0"/>
      <line x1="420.0" y1="76.0" x2="680.0" y2="76.0"/>
      <line x1="420.0" y1="102.0" x2="680.0" y2="102.0"/>
      <line x1="420.0" y1="128.0" x2="680.0" y2="128.0"/>
      <line x1="420.0" y1="154.0" x2="680.0" y2="154.0"/>
      <line x1="420.0" y1="180.0" x2="680.0" y2="180.0"/>
      <line x1="420.0" y1="206.0" x2="680.0" y2="206.0"/>
      <line x1="420.0" y1="232.0" x2="680.0" y2="232.0"/>
      <line x1="420.0" y1="258.0" x2="680.0" y2="258.0"/>
      <line x1="420.0" y1="284.0" x2="680.0" y2="284.0"/>
      <line x1="420.0" y1="310.0" x2="680.0" y2="310.0"/>
      <line x1="420.0" y1="336.0" x2="680.0" y2="336.0"/>
      <line x1="420.0" y1="362.0" x2="680.0" y2="362.0"/>
    </g>

    <rect x="420.0" y="50.0" width="260.0" height="312.0" rx="8" class="border-line"/>

    <g transform="translate(550.0, 388.0)">
      <rect x="-24" y="-13" width="48" height="26" rx="6" fill="rgba(239, 68, 68, 0.15)" stroke="#ef4444"/>
      <text y="5" font-family="-apple-system, sans-serif" font-size="14" font-weight="900" fill="#ef4444" text-anchor="middle">B</text>
    </g>
  </g>
</svg>