<svg xmlns="http://www.w3.org/2000/svg" viewBox="0 0 920 480" width="100%" height="100%">
  <defs>
    <filter id="shadow" x="-5%" y="-5%" width="115%" height="115%">
      <feDropShadow dx="0" dy="4" stdDeviation="6" flood-color="#0f172a" flood-opacity="0.08"/>
    </filter>
    <marker id="arrow" viewBox="0 0 10 10" refX="6" refY="5" markerWidth="6" markerHeight="6" orient="auto-start-reverse">
      <path d="M 0 1.5 L 8 5 L 0 8.5 z" fill="#2563eb"/>
    </marker>
    <style><![CDATA[
      /* Transparent Canvas & Adaptive Dual-Mode Styling */
      .grid-bg { fill: rgba(148, 163, 184, 0.05); stroke: #64748b; stroke-width: 1.2; }
      .grid-line { stroke: rgba(148, 163, 184, 0.45); stroke-width: 0.75; }
      .cut-line { stroke: #0f172a; stroke-linecap: round; }
      .text-title { fill: #0f172a; font-family: -apple-system, BlinkMacSystemFont, 'Segoe UI', Roboto, sans-serif; font-weight: 800; }
      .text-dim { fill: #475569; font-family: -apple-system, BlinkMacSystemFont, 'Segoe UI', Roboto, sans-serif; font-weight: 700; }
      .excess-tri { fill: #0f172a; stroke: #0f172a; stroke-width: 1; }
      .badge-a { fill: #ffffff; stroke: #2563eb; stroke-width: 2; }
      .badge-a-text { fill: #1d4ed8; font-family: -apple-system, BlinkMacSystemFont, 'Segoe UI', Roboto, sans-serif; font-size: 18px; font-weight: 800; }
      .badge-b { fill: #ffffff; stroke: #059669; stroke-width: 2; }
      .badge-b-text { fill: #047857; font-family: -apple-system, BlinkMacSystemFont, 'Segoe UI', Roboto, sans-serif; font-size: 18px; font-weight: 800; }

      @media (prefers-color-scheme: dark) {
        .grid-bg { fill: rgba(30, 41, 59, 0.35); stroke: #475569; }
        .grid-line { stroke: rgba(148, 163, 184, 0.25); }
        .cut-line { stroke: #f8fafc; }
        .text-title { fill: #f8fafc; }
        .text-dim { fill: #94a3b8; }
        .excess-tri { fill: #f8fafc; stroke: #f8fafc; }
        .badge-a { fill: #172554; stroke: #3b82f6; }
        .badge-a-text { fill: #93c5fd; }
        .badge-b { fill: #064e3b; stroke: #10b981; }
        .badge-b-text { fill: #6ee7b7; }
      }
    ]]></style>
  </defs>

  <!-- ==================== FIGURE 1 (LEFT) ==================== -->
  <g id="figure1" filter="url(#shadow)">
    <!-- Base grid background (sharp corners, transparent fill) -->
    <rect x="70.0" y="70.0" width="312.0" height="312.0" class="grid-bg"/>

    <!-- Grid lines -->
    <g class="grid-line">
      <line x1="70.0" y1="70.0" x2="70.0" y2="382.0"/>
      <line x1="83.0" y1="70.0" x2="83.0" y2="382.0"/>
      <line x1="96.0" y1="70.0" x2="96.0" y2="382.0"/>
      <line x1="109.0" y1="70.0" x2="109.0" y2="382.0"/>
      <line x1="122.0" y1="70.0" x2="122.0" y2="382.0"/>
      <line x1="135.0" y1="70.0" x2="135.0" y2="382.0"/>
      <line x1="148.0" y1="70.0" x2="148.0" y2="382.0"/>
      <line x1="161.0" y1="70.0" x2="161.0" y2="382.0"/>
      <line x1="174.0" y1="70.0" x2="174.0" y2="382.0"/>
      <line x1="187.0" y1="70.0" x2="187.0" y2="382.0"/>
      <line x1="200.0" y1="70.0" x2="200.0" y2="382.0"/>
      <line x1="213.0" y1="70.0" x2="213.0" y2="382.0"/>
      <line x1="226.0" y1="70.0" x2="226.0" y2="382.0"/>
      <line x1="239.0" y1="70.0" x2="239.0" y2="382.0"/>
      <line x1="252.0" y1="70.0" x2="252.0" y2="382.0"/>
      <line x1="265.0" y1="70.0" x2="265.0" y2="382.0"/>
      <line x1="278.0" y1="70.0" x2="278.0" y2="382.0"/>
      <line x1="291.0" y1="70.0" x2="291.0" y2="382.0"/>
      <line x1="304.0" y1="70.0" x2="304.0" y2="382.0"/>
      <line x1="317.0" y1="70.0" x2="317.0" y2="382.0"/>
      <line x1="330.0" y1="70.0" x2="330.0" y2="382.0"/>
      <line x1="343.0" y1="70.0" x2="343.0" y2="382.0"/>
      <line x1="356.0" y1="70.0" x2="356.0" y2="382.0"/>
      <line x1="369.0" y1="70.0" x2="369.0" y2="382.0"/>
      <line x1="382.0" y1="70.0" x2="382.0" y2="382.0"/>
      <line x1="70.0" y1="70.0" x2="382.0" y2="70.0"/>
      <line x1="70.0" y1="83.0" x2="382.0" y2="83.0"/>
      <line x1="70.0" y1="96.0" x2="382.0" y2="96.0"/>
      <line x1="70.0" y1="109.0" x2="382.0" y2="109.0"/>
      <line x1="70.0" y1="122.0" x2="382.0" y2="122.0"/>
      <line x1="70.0" y1="135.0" x2="382.0" y2="135.0"/>
      <line x1="70.0" y1="148.0" x2="382.0" y2="148.0"/>
      <line x1="70.0" y1="161.0" x2="382.0" y2="161.0"/>
      <line x1="70.0" y1="174.0" x2="382.0" y2="174.0"/>
      <line x1="70.0" y1="187.0" x2="382.0" y2="187.0"/>
      <line x1="70.0" y1="200.0" x2="382.0" y2="200.0"/>
      <line x1="70.0" y1="213.0" x2="382.0" y2="213.0"/>
      <line x1="70.0" y1="226.0" x2="382.0" y2="226.0"/>
      <line x1="70.0" y1="239.0" x2="382.0" y2="239.0"/>
      <line x1="70.0" y1="252.0" x2="382.0" y2="252.0"/>
      <line x1="70.0" y1="265.0" x2="382.0" y2="265.0"/>
      <line x1="70.0" y1="278.0" x2="382.0" y2="278.0"/>
      <line x1="70.0" y1="291.0" x2="382.0" y2="291.0"/>
      <line x1="70.0" y1="304.0" x2="382.0" y2="304.0"/>
      <line x1="70.0" y1="317.0" x2="382.0" y2="317.0"/>
      <line x1="70.0" y1="330.0" x2="382.0" y2="330.0"/>
      <line x1="70.0" y1="343.0" x2="382.0" y2="343.0"/>
      <line x1="70.0" y1="356.0" x2="382.0" y2="356.0"/>
      <line x1="70.0" y1="369.0" x2="382.0" y2="369.0"/>
      <line x1="70.0" y1="382.0" x2="382.0" y2="382.0"/>
    </g>

    <!-- Shaded regions -->
    <!-- Piece A -->
    <polygon points="70.0,70.0 83.0,70.0 382.0,382.0 70.0,382.0" 
             fill="rgba(59, 130, 246, 0.28)" stroke="none"/>
    <!-- Piece B -->
    <polygon points="83.0,70.0 382.0,70.0 382.0,382.0" 
             fill="rgba(16, 185, 129, 0.28)" stroke="none"/>

    <!-- Boundary of Square -->
    <rect x="70.0" y="70.0" width="312.0" height="312.0" fill="none" stroke-width="2" class="cut-line"/>

    <!-- Cut line -->
    <line x1="83.0" y1="70.0" x2="382.0" y2="382.0" stroke-width="3" class="cut-line"/>

    <!-- Badges -->
    <g transform="translate(150.0, 290.0)">
      <rect x="-20" y="-18" width="40" height="36" rx="8" class="badge-a"/>
      <text x="0" y="7" class="badge-a-text" text-anchor="middle">A</text>
    </g>

    <g transform="translate(295.0, 165.0)">
      <rect x="-20" y="-18" width="40" height="36" rx="8" class="badge-b"/>
      <text x="0" y="7" class="badge-b-text" text-anchor="middle">B</text>
    </g>

    <!-- Dimensions -->
    <text x="226.0" y="56.0" class="text-dim" font-size="14" text-anchor="middle">24 cm</text>
    <text x="54.0" y="231.0" class="text-dim" font-size="14" text-anchor="end">24 cm</text>

    <!-- Cut line start indicator (1 cm) -->
    <line x1="70.0" y1="66.0" x2="83.0" y2="66.0" stroke="#ef4444" stroke-width="2"/>
    <text x="76.5" y="62.0" font-family="-apple-system, BlinkMacSystemFont, 'Segoe UI', Roboto, sans-serif" font-size="10" font-weight="800" fill="#ef4444" text-anchor="middle">1</text>

    <!-- Subtitle -->
    <text x="226.0" y="416.0" class="text-title" font-size="16" text-anchor="middle">Hình 1: Hình vuông 24 × 24 cm (S = 576 cm²)</text>
  </g>

  <!-- ==================== FIGURE 2 (RIGHT) ==================== -->
  <g id="figure2" filter="url(#shadow)">
    <!-- Base grid background (sharp corners, transparent fill) -->
    <rect x="510.0" y="70.0" width="312.0" height="312.0" class="grid-bg"/>

    <!-- Grid lines for Fig 2 -->
    <g class="grid-line">
      <line x1="510.0" y1="70.0" x2="510.0" y2="382.0"/>
      <line x1="523.0" y1="70.0" x2="523.0" y2="382.0"/>
      <line x1="536.0" y1="70.0" x2="536.0" y2="382.0"/>
      <line x1="549.0" y1="70.0" x2="549.0" y2="382.0"/>
      <line x1="562.0" y1="70.0" x2="562.0" y2="382.0"/>
      <line x1="575.0" y1="70.0" x2="575.0" y2="382.0"/>
      <line x1="588.0" y1="70.0" x2="588.0" y2="382.0"/>
      <line x1="601.0" y1="70.0" x2="601.0" y2="382.0"/>
      <line x1="614.0" y1="70.0" x2="614.0" y2="382.0"/>
      <line x1="627.0" y1="70.0" x2="627.0" y2="382.0"/>
      <line x1="640.0" y1="70.0" x2="640.0" y2="382.0"/>
      <line x1="653.0" y1="70.0" x2="653.0" y2="382.0"/>
      <line x1="666.0" y1="70.0" x2="666.0" y2="382.0"/>
      <line x1="679.0" y1="70.0" x2="679.0" y2="382.0"/>
      <line x1="692.0" y1="70.0" x2="692.0" y2="382.0"/>
      <line x1="705.0" y1="70.0" x2="705.0" y2="382.0"/>
      <line x1="718.0" y1="70.0" x2="718.0" y2="382.0"/>
      <line x1="731.0" y1="70.0" x2="731.0" y2="382.0"/>
      <line x1="744.0" y1="70.0" x2="744.0" y2="382.0"/>
      <line x1="757.0" y1="70.0" x2="757.0" y2="382.0"/>
      <line x1="770.0" y1="70.0" x2="770.0" y2="382.0"/>
      <line x1="783.0" y1="70.0" x2="783.0" y2="382.0"/>
      <line x1="796.0" y1="70.0" x2="796.0" y2="382.0"/>
      <line x1="809.0" y1="70.0" x2="809.0" y2="382.0"/>
      <line x1="822.0" y1="70.0" x2="822.0" y2="382.0"/>
      <line x1="510.0" y1="70.0" x2="822.0" y2="70.0"/>
      <line x1="510.0" y1="83.0" x2="822.0" y2="83.0"/>
      <line x1="510.0" y1="96.0" x2="822.0" y2="96.0"/>
      <line x1="510.0" y1="109.0" x2="822.0" y2="109.0"/>
      <line x1="510.0" y1="122.0" x2="822.0" y2="122.0"/>
      <line x1="510.0" y1="135.0" x2="822.0" y2="135.0"/>
      <line x1="510.0" y1="148.0" x2="822.0" y2="148.0"/>
      <line x1="510.0" y1="161.0" x2="822.0" y2="161.0"/>
      <line x1="510.0" y1="174.0" x2="822.0" y2="174.0"/>
      <line x1="510.0" y1="187.0" x2="822.0" y2="187.0"/>
      <line x1="510.0" y1="200.0" x2="822.0" y2="200.0"/>
      <line x1="510.0" y1="213.0" x2="822.0" y2="213.0"/>
      <line x1="510.0" y1="226.0" x2="822.0" y2="226.0"/>
      <line x1="510.0" y1="239.0" x2="822.0" y2="239.0"/>
      <line x1="510.0" y1="252.0" x2="822.0" y2="252.0"/>
      <line x1="510.0" y1="265.0" x2="822.0" y2="265.0"/>
      <line x1="510.0" y1="278.0" x2="822.0" y2="278.0"/>
      <line x1="510.0" y1="291.0" x2="822.0" y2="291.0"/>
      <line x1="510.0" y1="304.0" x2="822.0" y2="304.0"/>
      <line x1="510.0" y1="317.0" x2="822.0" y2="317.0"/>
      <line x1="510.0" y1="330.0" x2="822.0" y2="330.0"/>
      <line x1="510.0" y1="343.0" x2="822.0" y2="343.0"/>
      <line x1="510.0" y1="356.0" x2="822.0" y2="356.0"/>
      <line x1="510.0" y1="369.0" x2="822.0" y2="369.0"/>
      <line x1="510.0" y1="382.0" x2="822.0" y2="382.0"/>
    </g>

    <!-- Piece A fill -->
    <polygon points="510.0,70.0 523.0,70.0 822.0,382.0 510.0,382.0" 
             fill="rgba(59, 130, 246, 0.28)" stroke="none"/>

    <!-- Shifted Piece B fill -->
    <polygon points="510.5,57.0 809.5,57.0 809.5,369.0" 
             fill="rgba(16, 185, 129, 0.28)" stroke="#10b981" stroke-width="1.5"/>

    <!-- Main cut line between A and shifted B -->
    <line x1="510.5" y1="57.0" x2="822.0" y2="382.0" stroke-width="3" class="cut-line"/>

    <!-- The Excess Triangle at bottom-right (filled black/white as in original book) -->
    <polygon points="809.5,369.0 822.0,382.0 809.5,382.0" class="excess-tri"/>

    <!-- Top-left notch (where the triangle will fit) -->
    <polygon points="510.0,57.0 510.5,57.0 510.0,70.0"
             fill="rgba(239, 68, 68, 0.25)" stroke="#ef4444" stroke-width="1.5" stroke-dasharray="3,3"/>

    <!-- Transfer arrow from bottom-right to top-left -->
    <path d="M 815.5 378.0 
             C 867.0 226.0, 530.0 35.0, 514.0 53.0" 
          fill="none" stroke="#2563eb" stroke-width="2" stroke-dasharray="4,4" marker-end="url(#arrow)"/>

    <!-- Outlines -->
    <!-- Left edge of Piece A -->
    <line x1="510.0" y1="70.0" x2="510.0" y2="382.0" stroke-width="2" class="cut-line"/>
    <!-- Bottom edge of Piece A -->
    <line x1="510.0" y1="382.0" x2="822.0" y2="382.0" stroke-width="2" class="cut-line"/>
    <!-- Top edge of shifted B -->
    <line x1="510.5" y1="57.0" x2="809.5" y2="57.0" stroke-width="2" class="cut-line"/>
    <!-- Right edge of shifted B -->
    <line x1="809.5" y1="57.0" x2="809.5" y2="369.0" stroke-width="2" class="cut-line"/>

    <!-- Dimensions -->
    <text x="666.0" y="45.0" class="text-dim" font-size="14" text-anchor="middle">25 cm (lầm tưởng)</text>
    <text x="494.0" y="231.0" class="text-dim" font-size="14" text-anchor="end">23 cm</text>

    <!-- Subtitle -->
    <text x="666.0" y="416.0" class="text-title" font-size="16" text-anchor="middle">Hình 2: Trượt B &amp; chuyển tam giác thừa (-1 cm²?)</text>
  </g>
</svg>