<svg xmlns="http://www.w3.org/2000/svg" viewBox="0 0 920 480" width="100%" height="100%">
  <defs>
    <filter id="shadow" x="-5%" y="-5%" width="115%" height="115%">
      <feDropShadow dx="0" dy="4" stdDeviation="6" flood-color="#0f172a" flood-opacity="0.08"/>
    </filter>
    <marker id="arrow" viewBox="0 0 10 10" refX="6" refY="5" markerWidth="6" markerHeight="6" orient="auto-start-reverse">
      <path d="M 0 1.5 L 8 5 L 0 8.5 z" fill="#2563eb"/>
    </marker>
  </defs>

  <!-- ==================== FIGURE 1 (LEFT) ==================== -->
  <g id="figure1" filter="url(#shadow)">
    <!-- White background card for grid -->
    <rect x="70.0" y="70.0" width="312.0" height="312.0" fill="#ffffff" stroke="#cbd5e1" stroke-width="1"/>

    <!-- Grid lines -->
    <line x1="70.0" y1="70.0" x2="70.0" y2="382.0" stroke="#e2e8f0" stroke-width="0.75"/>
    <line x1="83.0" y1="70.0" x2="83.0" y2="382.0" stroke="#e2e8f0" stroke-width="0.75"/>
    <line x1="96.0" y1="70.0" x2="96.0" y2="382.0" stroke="#e2e8f0" stroke-width="0.75"/>
    <line x1="109.0" y1="70.0" x2="109.0" y2="382.0" stroke="#e2e8f0" stroke-width="0.75"/>
    <line x1="122.0" y1="70.0" x2="122.0" y2="382.0" stroke="#e2e8f0" stroke-width="0.75"/>
    <line x1="135.0" y1="70.0" x2="135.0" y2="382.0" stroke="#e2e8f0" stroke-width="0.75"/>
    <line x1="148.0" y1="70.0" x2="148.0" y2="382.0" stroke="#e2e8f0" stroke-width="0.75"/>
    <line x1="161.0" y1="70.0" x2="161.0" y2="382.0" stroke="#e2e8f0" stroke-width="0.75"/>
    <line x1="174.0" y1="70.0" x2="174.0" y2="382.0" stroke="#e2e8f0" stroke-width="0.75"/>
    <line x1="187.0" y1="70.0" x2="187.0" y2="382.0" stroke="#e2e8f0" stroke-width="0.75"/>
    <line x1="200.0" y1="70.0" x2="200.0" y2="382.0" stroke="#e2e8f0" stroke-width="0.75"/>
    <line x1="213.0" y1="70.0" x2="213.0" y2="382.0" stroke="#e2e8f0" stroke-width="0.75"/>
    <line x1="226.0" y1="70.0" x2="226.0" y2="382.0" stroke="#e2e8f0" stroke-width="0.75"/>
    <line x1="239.0" y1="70.0" x2="239.0" y2="382.0" stroke="#e2e8f0" stroke-width="0.75"/>
    <line x1="252.0" y1="70.0" x2="252.0" y2="382.0" stroke="#e2e8f0" stroke-width="0.75"/>
    <line x1="265.0" y1="70.0" x2="265.0" y2="382.0" stroke="#e2e8f0" stroke-width="0.75"/>
    <line x1="278.0" y1="70.0" x2="278.0" y2="382.0" stroke="#e2e8f0" stroke-width="0.75"/>
    <line x1="291.0" y1="70.0" x2="291.0" y2="382.0" stroke="#e2e8f0" stroke-width="0.75"/>
    <line x1="304.0" y1="70.0" x2="304.0" y2="382.0" stroke="#e2e8f0" stroke-width="0.75"/>
    <line x1="317.0" y1="70.0" x2="317.0" y2="382.0" stroke="#e2e8f0" stroke-width="0.75"/>
    <line x1="330.0" y1="70.0" x2="330.0" y2="382.0" stroke="#e2e8f0" stroke-width="0.75"/>
    <line x1="343.0" y1="70.0" x2="343.0" y2="382.0" stroke="#e2e8f0" stroke-width="0.75"/>
    <line x1="356.0" y1="70.0" x2="356.0" y2="382.0" stroke="#e2e8f0" stroke-width="0.75"/>
    <line x1="369.0" y1="70.0" x2="369.0" y2="382.0" stroke="#e2e8f0" stroke-width="0.75"/>
    <line x1="382.0" y1="70.0" x2="382.0" y2="382.0" stroke="#e2e8f0" stroke-width="0.75"/>
    <line x1="70.0" y1="70.0" x2="382.0" y2="70.0" stroke="#e2e8f0" stroke-width="0.75"/>
    <line x1="70.0" y1="83.0" x2="382.0" y2="83.0" stroke="#e2e8f0" stroke-width="0.75"/>
    <line x1="70.0" y1="96.0" x2="382.0" y2="96.0" stroke="#e2e8f0" stroke-width="0.75"/>
    <line x1="70.0" y1="109.0" x2="382.0" y2="109.0" stroke="#e2e8f0" stroke-width="0.75"/>
    <line x1="70.0" y1="122.0" x2="382.0" y2="122.0" stroke="#e2e8f0" stroke-width="0.75"/>
    <line x1="70.0" y1="135.0" x2="382.0" y2="135.0" stroke="#e2e8f0" stroke-width="0.75"/>
    <line x1="70.0" y1="148.0" x2="382.0" y2="148.0" stroke="#e2e8f0" stroke-width="0.75"/>
    <line x1="70.0" y1="161.0" x2="382.0" y2="161.0" stroke="#e2e8f0" stroke-width="0.75"/>
    <line x1="70.0" y1="174.0" x2="382.0" y2="174.0" stroke="#e2e8f0" stroke-width="0.75"/>
    <line x1="70.0" y1="187.0" x2="382.0" y2="187.0" stroke="#e2e8f0" stroke-width="0.75"/>
    <line x1="70.0" y1="200.0" x2="382.0" y2="200.0" stroke="#e2e8f0" stroke-width="0.75"/>
    <line x1="70.0" y1="213.0" x2="382.0" y2="213.0" stroke="#e2e8f0" stroke-width="0.75"/>
    <line x1="70.0" y1="226.0" x2="382.0" y2="226.0" stroke="#e2e8f0" stroke-width="0.75"/>
    <line x1="70.0" y1="239.0" x2="382.0" y2="239.0" stroke="#e2e8f0" stroke-width="0.75"/>
    <line x1="70.0" y1="252.0" x2="382.0" y2="252.0" stroke="#e2e8f0" stroke-width="0.75"/>
    <line x1="70.0" y1="265.0" x2="382.0" y2="265.0" stroke="#e2e8f0" stroke-width="0.75"/>
    <line x1="70.0" y1="278.0" x2="382.0" y2="278.0" stroke="#e2e8f0" stroke-width="0.75"/>
    <line x1="70.0" y1="291.0" x2="382.0" y2="291.0" stroke="#e2e8f0" stroke-width="0.75"/>
    <line x1="70.0" y1="304.0" x2="382.0" y2="304.0" stroke="#e2e8f0" stroke-width="0.75"/>
    <line x1="70.0" y1="317.0" x2="382.0" y2="317.0" stroke="#e2e8f0" stroke-width="0.75"/>
    <line x1="70.0" y1="330.0" x2="382.0" y2="330.0" stroke="#e2e8f0" stroke-width="0.75"/>
    <line x1="70.0" y1="343.0" x2="382.0" y2="343.0" stroke="#e2e8f0" stroke-width="0.75"/>
    <line x1="70.0" y1="356.0" x2="382.0" y2="356.0" stroke="#e2e8f0" stroke-width="0.75"/>
    <line x1="70.0" y1="369.0" x2="382.0" y2="369.0" stroke="#e2e8f0" stroke-width="0.75"/>
    <line x1="70.0" y1="382.0" x2="382.0" y2="382.0" stroke="#e2e8f0" stroke-width="0.75"/>

    <!-- Shaded regions -->
    <!-- Piece A -->
    <polygon points="70.0,70.0 83.0,70.0 382.0,382.0 70.0,382.0" 
             fill="#dbeafe" fill-opacity="0.45" stroke="none"/>
    <!-- Piece B -->
    <polygon points="83.0,70.0 382.0,70.0 382.0,382.0" 
             fill="#d1fae5" fill-opacity="0.45" stroke="none"/>

    <!-- Boundary of Square -->
    <rect x="70.0" y="70.0" width="312.0" height="312.0" fill="none" stroke="#0f172a" stroke-width="2"/>

    <!-- Cut line -->
    <line x1="83.0" y1="70.0" x2="382.0" y2="382.0" stroke="#0f172a" stroke-width="3"/>

    <!-- Badges -->
    <g transform="translate(150.0, 290.0)">
      <rect x="-20" y="-18" width="40" height="36" rx="8" fill="#ffffff" stroke="#2563eb" stroke-width="2"/>
      <text x="0" y="7" font-family="-apple-system, BlinkMacSystemFont, 'Segoe UI', Roboto, sans-serif" font-size="18" font-weight="800" fill="#1d4ed8" text-anchor="middle">A</text>
    </g>

    <g transform="translate(295.0, 165.0)">
      <rect x="-20" y="-18" width="40" height="36" rx="8" fill="#ffffff" stroke="#059669" stroke-width="2"/>
      <text x="0" y="7" font-family="-apple-system, BlinkMacSystemFont, 'Segoe UI', Roboto, sans-serif" font-size="18" font-weight="800" fill="#047857" text-anchor="middle">B</text>
    </g>

    <!-- Dimensions -->
    <text x="226.0" y="56.0" font-family="-apple-system, BlinkMacSystemFont, 'Segoe UI', Roboto, sans-serif" font-size="14" font-weight="700" fill="#475569" text-anchor="middle">24 cm</text>
    <text x="54.0" y="231.0" font-family="-apple-system, BlinkMacSystemFont, 'Segoe UI', Roboto, sans-serif" font-size="14" font-weight="700" fill="#475569" text-anchor="end">24 cm</text>

    <!-- Cut line start indicator (1 cm) -->
    <line x1="70.0" y1="66.0" x2="83.0" y2="66.0" stroke="#ef4444" stroke-width="2"/>
    <text x="76.5" y="62.0" font-family="-apple-system, BlinkMacSystemFont, 'Segoe UI', Roboto, sans-serif" font-size="10" font-weight="800" fill="#ef4444" text-anchor="middle">1</text>

    <!-- Subtitle -->
    <text x="226.0" y="416.0" font-family="-apple-system, BlinkMacSystemFont, 'Segoe UI', Roboto, sans-serif" font-size="16" font-weight="800" fill="#0f172a" text-anchor="middle">Hình 1: Hình vuông 24 × 24 cm (S = 576 cm²)</text>
  </g>

  <!-- ==================== FIGURE 2 (RIGHT) ==================== -->
  <g id="figure2" filter="url(#shadow)">
    <!-- Base grid background -->
    <rect x="510.0" y="70.0" width="312.0" height="312.0" fill="#ffffff" stroke="#cbd5e1" stroke-width="1"/>

    <!-- Grid lines for Fig 2 -->
    <line x1="510.0" y1="70.0" x2="510.0" y2="382.0" stroke="#e2e8f0" stroke-width="0.75"/>
    <line x1="523.0" y1="70.0" x2="523.0" y2="382.0" stroke="#e2e8f0" stroke-width="0.75"/>
    <line x1="536.0" y1="70.0" x2="536.0" y2="382.0" stroke="#e2e8f0" stroke-width="0.75"/>
    <line x1="549.0" y1="70.0" x2="549.0" y2="382.0" stroke="#e2e8f0" stroke-width="0.75"/>
    <line x1="562.0" y1="70.0" x2="562.0" y2="382.0" stroke="#e2e8f0" stroke-width="0.75"/>
    <line x1="575.0" y1="70.0" x2="575.0" y2="382.0" stroke="#e2e8f0" stroke-width="0.75"/>
    <line x1="588.0" y1="70.0" x2="588.0" y2="382.0" stroke="#e2e8f0" stroke-width="0.75"/>
    <line x1="601.0" y1="70.0" x2="601.0" y2="382.0" stroke="#e2e8f0" stroke-width="0.75"/>
    <line x1="614.0" y1="70.0" x2="614.0" y2="382.0" stroke="#e2e8f0" stroke-width="0.75"/>
    <line x1="627.0" y1="70.0" x2="627.0" y2="382.0" stroke="#e2e8f0" stroke-width="0.75"/>
    <line x1="640.0" y1="70.0" x2="640.0" y2="382.0" stroke="#e2e8f0" stroke-width="0.75"/>
    <line x1="653.0" y1="70.0" x2="653.0" y2="382.0" stroke="#e2e8f0" stroke-width="0.75"/>
    <line x1="666.0" y1="70.0" x2="666.0" y2="382.0" stroke="#e2e8f0" stroke-width="0.75"/>
    <line x1="679.0" y1="70.0" x2="679.0" y2="382.0" stroke="#e2e8f0" stroke-width="0.75"/>
    <line x1="692.0" y1="70.0" x2="692.0" y2="382.0" stroke="#e2e8f0" stroke-width="0.75"/>
    <line x1="705.0" y1="70.0" x2="705.0" y2="382.0" stroke="#e2e8f0" stroke-width="0.75"/>
    <line x1="718.0" y1="70.0" x2="718.0" y2="382.0" stroke="#e2e8f0" stroke-width="0.75"/>
    <line x1="731.0" y1="70.0" x2="731.0" y2="382.0" stroke="#e2e8f0" stroke-width="0.75"/>
    <line x1="744.0" y1="70.0" x2="744.0" y2="382.0" stroke="#e2e8f0" stroke-width="0.75"/>
    <line x1="757.0" y1="70.0" x2="757.0" y2="382.0" stroke="#e2e8f0" stroke-width="0.75"/>
    <line x1="770.0" y1="70.0" x2="770.0" y2="382.0" stroke="#e2e8f0" stroke-width="0.75"/>
    <line x1="783.0" y1="70.0" x2="783.0" y2="382.0" stroke="#e2e8f0" stroke-width="0.75"/>
    <line x1="796.0" y1="70.0" x2="796.0" y2="382.0" stroke="#e2e8f0" stroke-width="0.75"/>
    <line x1="809.0" y1="70.0" x2="809.0" y2="382.0" stroke="#e2e8f0" stroke-width="0.75"/>
    <line x1="822.0" y1="70.0" x2="822.0" y2="382.0" stroke="#e2e8f0" stroke-width="0.75"/>
    <line x1="510.0" y1="70.0" x2="822.0" y2="70.0" stroke="#e2e8f0" stroke-width="0.75"/>
    <line x1="510.0" y1="83.0" x2="822.0" y2="83.0" stroke="#e2e8f0" stroke-width="0.75"/>
    <line x1="510.0" y1="96.0" x2="822.0" y2="96.0" stroke="#e2e8f0" stroke-width="0.75"/>
    <line x1="510.0" y1="109.0" x2="822.0" y2="109.0" stroke="#e2e8f0" stroke-width="0.75"/>
    <line x1="510.0" y1="122.0" x2="822.0" y2="122.0" stroke="#e2e8f0" stroke-width="0.75"/>
    <line x1="510.0" y1="135.0" x2="822.0" y2="135.0" stroke="#e2e8f0" stroke-width="0.75"/>
    <line x1="510.0" y1="148.0" x2="822.0" y2="148.0" stroke="#e2e8f0" stroke-width="0.75"/>
    <line x1="510.0" y1="161.0" x2="822.0" y2="161.0" stroke="#e2e8f0" stroke-width="0.75"/>
    <line x1="510.0" y1="174.0" x2="822.0" y2="174.0" stroke="#e2e8f0" stroke-width="0.75"/>
    <line x1="510.0" y1="187.0" x2="822.0" y2="187.0" stroke="#e2e8f0" stroke-width="0.75"/>
    <line x1="510.0" y1="200.0" x2="822.0" y2="200.0" stroke="#e2e8f0" stroke-width="0.75"/>
    <line x1="510.0" y1="213.0" x2="822.0" y2="213.0" stroke="#e2e8f0" stroke-width="0.75"/>
    <line x1="510.0" y1="226.0" x2="822.0" y2="226.0" stroke="#e2e8f0" stroke-width="0.75"/>
    <line x1="510.0" y1="239.0" x2="822.0" y2="239.0" stroke="#e2e8f0" stroke-width="0.75"/>
    <line x1="510.0" y1="252.0" x2="822.0" y2="252.0" stroke="#e2e8f0" stroke-width="0.75"/>
    <line x1="510.0" y1="265.0" x2="822.0" y2="265.0" stroke="#e2e8f0" stroke-width="0.75"/>
    <line x1="510.0" y1="278.0" x2="822.0" y2="278.0" stroke="#e2e8f0" stroke-width="0.75"/>
    <line x1="510.0" y1="291.0" x2="822.0" y2="291.0" stroke="#e2e8f0" stroke-width="0.75"/>
    <line x1="510.0" y1="304.0" x2="822.0" y2="304.0" stroke="#e2e8f0" stroke-width="0.75"/>
    <line x1="510.0" y1="317.0" x2="822.0" y2="317.0" stroke="#e2e8f0" stroke-width="0.75"/>
    <line x1="510.0" y1="330.0" x2="822.0" y2="330.0" stroke="#e2e8f0" stroke-width="0.75"/>
    <line x1="510.0" y1="343.0" x2="822.0" y2="343.0" stroke="#e2e8f0" stroke-width="0.75"/>
    <line x1="510.0" y1="356.0" x2="822.0" y2="356.0" stroke="#e2e8f0" stroke-width="0.75"/>
    <line x1="510.0" y1="369.0" x2="822.0" y2="369.0" stroke="#e2e8f0" stroke-width="0.75"/>
    <line x1="510.0" y1="382.0" x2="822.0" y2="382.0" stroke="#e2e8f0" stroke-width="0.75"/>

    <!-- Piece A fill -->
    <polygon points="510.0,70.0 523.0,70.0 822.0,382.0 510.0,382.0" 
             fill="#dbeafe" fill-opacity="0.45" stroke="none"/>

    <!-- Shifted Piece B fill -->
    <polygon points="510.5,57.0 809.5,57.0 809.5,369.0" 
             fill="#d1fae5" fill-opacity="0.55" stroke="#059669" stroke-width="1.5"/>

    <!-- Main cut line between A and shifted B -->
    <line x1="510.5" y1="57.0" x2="822.0" y2="382.0" stroke="#0f172a" stroke-width="3"/>

    <!-- The Excess Triangle at bottom-right (filled black as in original book) -->
    <polygon points="809.5,369.0 822.0,382.0 809.5,382.0"
             fill="#0f172a" stroke="#0f172a" stroke-width="1"/>

    <!-- Top-left notch (where the triangle will fit) -->
    <polygon points="510.0,57.0 510.5,57.0 510.0,70.0"
             fill="#fee2e2" fill-opacity="0.6" stroke="#ef4444" stroke-width="1.5" stroke-dasharray="3,3"/>

    <!-- Transfer arrow from bottom-right to top-left -->
    <path d="M 815.5 378.0 
             C 867.0 226.0, 530.0 35.0, 514.0 53.0" 
          fill="none" stroke="#2563eb" stroke-width="2" stroke-dasharray="4,4" marker-end="url(#arrow)"/>

    <!-- Outlines -->
    <!-- Left edge of Piece A -->
    <line x1="510.0" y1="70.0" x2="510.0" y2="382.0" stroke="#0f172a" stroke-width="2"/>
    <!-- Bottom edge of Piece A -->
    <line x1="510.0" y1="382.0" x2="822.0" y2="382.0" stroke="#0f172a" stroke-width="2"/>
    <!-- Top edge of shifted B -->
    <line x1="510.5" y1="57.0" x2="809.5" y2="57.0" stroke="#0f172a" stroke-width="2"/>
    <!-- Right edge of shifted B -->
    <line x1="809.5" y1="57.0" x2="809.5" y2="369.0" stroke="#0f172a" stroke-width="2"/>

    <!-- Dimensions -->
    <text x="666.0" y="45.0" font-family="-apple-system, BlinkMacSystemFont, 'Segoe UI', Roboto, sans-serif" font-size="14" font-weight="700" fill="#475569" text-anchor="middle">25 cm (lầm tưởng)</text>
    <text x="494.0" y="231.0" font-family="-apple-system, BlinkMacSystemFont, 'Segoe UI', Roboto, sans-serif" font-size="14" font-weight="700" fill="#475569" text-anchor="end">23 cm</text>

    <!-- Subtitle -->
    <text x="666.0" y="416.0" font-family="-apple-system, BlinkMacSystemFont, 'Segoe UI', Roboto, sans-serif" font-size="16" font-weight="800" fill="#0f172a" text-anchor="middle">Hình 2: Trượt B &amp; chuyển tam giác thừa (-1 cm²?)</text>
  </g>
</svg>